<!DOCTYPE svg PUBLIC "-//W3C//DTD SVG 1.1//EN" "http://www.w3.org/Graphics/SVG/1.1/DTD/svg11.dtd">
<!-- Uploaded to: SVG Repo, www.svgrepo.com, Transformed by: SVG Repo Mixer Tools -->
<svg fill="#222222" width="800px" height="800px" viewBox="-1.5 0 24 24" xmlns="http://www.w3.org/2000/svg" stroke="#222222" stroke-width="0.00024000000000000003">
<g id="SVGRepo_bgCarrier" stroke-width="0"/>
<g id="SVGRepo_tracerCarrier" stroke-linecap="round" stroke-linejoin="round"/>
<g id="SVGRepo_iconCarrier">
<path d="m19.366 21.423 1.913-21.423h-21.279l.025.278 1.885 21.148.016.176 8.633 2.398h.136l8.653-2.4.016-.176zm-8.708-16.744h6.183l-.186 2.16-6.1 2.712.102.488h5.724l-.659 7.551-5.086 1.41-5.084-1.408-.32-3.616h2.093l.168 1.833.016.178 3.085.82h.133l3.051-.848.015-.177.288-3.386.023-.276h-9.047l-.19-2.173 6.309-2.701-.1-.49h-6.48l-.185-2.08h6.24z"/>
</g>
</svg>